[IMG]http://img171.imageshack.us/img171/589/machg.jpg[/IMG]
[code]
Machine Gun Preacher 2011 DVDRIP XViD AC3-26K

Imdb: 
http://www.imdb.com/title/tt1586752/

Plot:
The story of Sam Childers, a former drug-dealing biker tough guy who found God and became a crusader 

for hundreds of Sudanese children who've been forced to become soldiers.

Sources:
Cinemagic thnxs 

Notes:
WOW A DVDSCR!!! WELL ADDED A FEW FILTERS TO THE VIDEO TO MAKE IT LOOK NICE!!
:p ENJOY!

Greetz:
Xtreme 

Encode|FYA|ILLUMANTI|CM8|RX|VISION|HDSCENE|NIGHTMAREZ|xTriLL|DTRG|CRYS|REMIXHD|BIDA|RX|REFILL|INSPiRAL

|SIC|ZOMBIESZ|HOPE|Anonymous|GooN
To all the people who have helped me :P you know who you are

Anything to offer email us @: 26k@hushmail.me

Video
ID                                       : 0
Format                                   : MPEG-4 Visual
Format profile                           : Advanced Simple@L5
Format settings, BVOP                    : 2
Format settings, QPel                    : No
Format settings, GMC                     : No warppoints
Format settings, Matrix                  : Default (H.263)
Codec ID                                 : XVID
Codec ID/Hint                            : XviD
Duration                                 : 2h 3mn
Bit rate                                 : 1 800 Kbps
Width                                    : 720 pixels
Height                                   : 300 pixels
Display aspect ratio                     : 2.40:1
Frame rate                               : 25.000 fps
Color space                              : YUV
Chroma subsampling                       : 4:2:0
Bit depth                                : 8 bits
Scan type                                : Progressive
Compression mode                         : Lossy
Bits/(Pixel*Frame)                       : 0.333
Stream size                              : 1.55 GiB (82%)
Writing library                          : XviD 64

Audio
ID                                       : 1
Format                                   : AC-3
Format/Info                              : Audio Coding 3
Mode extension                           : CM (complete main)
Codec ID                                 : 2000
Duration                                 : 2h 3mn
Source duration                          : 2h 3mn
Bit rate mode                            : Constant
Bit rate                                 : 384 Kbps
Channel(s)                               : 2 channels
Channel positions                        : Front: L R
Sampling rate                            : 44.1 KHz
Bit depth                                : 16 bits
Compression mode                         : Lossy
Stream size                              : 339 MiB (17%)
Alignment                                : Aligned on interleaves
Interleave, duration                     : 35 ms (0.87 video frame)

[/code]
Screens:
[IMG]http://i.imgur.com/PHA1Y.png[/IMG]
[IMG]http://i.imgur.com/2nt40.png[/IMG]
[IMG]http://img36.imageshack.us/img36/2528/vlcsnap2012022811h30m17.png[/IMG]
[IMG]http://img829.imageshack.us/img829/1705/vlcsnap2012022811h30m31.png[/IMG]
[IMG]http://img444.imageshack.us/img444/1458/vlcsnap2012022811h30m35.png[/IMG]
[IMG]http://img52.imageshack.us/img52/9256/vlcsnap2012022811h30m40.png[/IMG]

[img]http://img851.imageshack.us/img851/5503/26ks.jpg[/img]
Thank you smallz for banner!